<svg width="25" height="25" viewBox="0 0 25 25" fill="none" xmlns="http://www.w3.org/2000/svg">
<path d="M13.125 1C15.1562 1.03125 16.9844 1.53125 18.6094 2.5C20.2344 3.46875 21.5312 4.76562 22.5 6.39062C23.4688 8.01562 23.9688 9.84375 24 11.875C23.9375 12.5625 23.5625 12.9375 22.875 13C22.1875 12.9375 21.8125 12.5625 21.75 11.875C21.6875 9.4375 20.8438 7.40625 19.2188 5.78125C17.5938 4.15625 15.5625 3.3125 13.125 3.25C12.4375 3.1875 12.0625 2.8125 12 2.125C12.0625 1.4375 12.4375 1.0625 13.125 1ZM13.5 10C13.9375 10 14.2969 10.1406 14.5781 10.4219C14.8594 10.7031 15 11.0625 15 11.5C15 11.9375 14.8594 12.2969 14.5781 12.5781C14.2969 12.8594 13.9375 13 13.5 13C13.0625 13 12.7031 12.8594 12.4219 12.5781C12.1406 12.2969 12 11.9375 12 11.5C12 11.0625 12.1406 10.7031 12.4219 10.4219C12.7031 10.1406 13.0625 10 13.5 10ZM12 6.625C12.0625 5.9375 12.4375 5.5625 13.125 5.5C14.9375 5.53125 16.4375 6.15625 17.625 7.375C18.8438 8.5625 19.4688 10.0625 19.5 11.875C19.4375 12.5625 19.0625 12.9375 18.375 13C17.6875 12.9375 17.3125 12.5625 17.25 11.875C17.2188 10.7188 16.8125 9.75 16.0312 8.96875C15.25 8.1875 14.2812 7.78125 13.125 7.75C12.4375 7.6875 12.0625 7.3125 12 6.625ZM15.4219 14.4531C16.0469 13.7656 16.7812 13.5781 17.625 13.8906L22.875 16.1406C23.2812 16.3281 23.5938 16.625 23.8125 17.0312C24 17.4062 24.0469 17.8125 23.9531 18.25L22.8281 23.5C22.5781 24.4375 21.9688 24.9375 21 25C20.7188 25 20.4375 25 20.1562 25C19.6875 24.9688 19.2188 24.9219 18.75 24.8594C15.1875 24.4531 12 23.2969 9.1875 21.3906C6.375 19.4531 4.15625 16.9844 2.53125 13.9844C0.875 10.9844 0.03125 7.65625 0 4C0.0625 3.03125 0.5625 2.42187 1.5 2.17188L6.75 1.04688C7.1875 0.953125 7.59375 1 7.96875 1.1875C8.375 1.40625 8.67188 1.71875 8.85938 2.125L11.1094 7.375C11.4219 8.21875 11.2344 8.95312 10.5469 9.57812L8.67188 11.125C9.95312 13.3125 11.6875 15.0469 13.875 16.3281L15.4219 14.4531ZM21.7031 18.1094L16.9688 16.0938L15.6094 17.7812C15.2344 18.1875 14.7812 18.4375 14.25 18.5312C13.75 18.625 13.25 18.5469 12.75 18.2969C10.2188 16.7969 8.20312 14.7812 6.70312 12.25C6.42188 11.75 6.32812 11.2344 6.42188 10.7031C6.54688 10.2031 6.8125 9.76562 7.21875 9.39062L8.90625 8.03125L6.89062 3.29688L2.25 4.32812C2.34375 7.73438 3.21875 10.8125 4.875 13.5625C6.5 16.3125 8.6875 18.5 11.4375 20.125C14.1875 21.7812 17.2812 22.6562 20.7188 22.75L21.7031 18.1094Z" fill="black"/>
</svg>
