<svg width="16" height="17" viewBox="0 0 16 17" fill="none" xmlns="http://www.w3.org/2000/svg">
<path d="M2.33984 11.9062C2.94922 12.8438 3.74609 13.5938 4.73047 14.1562C5.71484 14.6953 6.80469 14.9766 8 15C9.92188 14.9531 11.5156 14.2969 12.7812 13.0312C14.0469 11.7656 14.7031 10.1719 14.75 8.25C14.7031 6.32812 14.0469 4.73438 12.7812 3.46875C11.5156 2.20312 9.92188 1.54687 8 1.5C6.3125 1.52344 4.85938 2.05078 3.64062 3.08203L4.90625 4.34766C5.09375 4.53516 5.1875 4.76953 5.1875 5.05078C5.1875 5.30859 5.09375 5.53125 4.90625 5.71875C4.71875 5.90625 4.49609 6 4.23828 6H0.6875C0.335938 5.97656 0.148438 5.78906 0.125 5.4375V1.88672C0.125 1.62891 0.21875 1.40625 0.40625 1.21875C0.59375 1.03125 0.816406 0.9375 1.07422 0.9375C1.35547 0.9375 1.58984 1.03125 1.77734 1.21875L2.83203 2.30859C4.26172 1.06641 5.98438 0.421875 8 0.375C9.47656 0.398438 10.8008 0.761719 11.9727 1.46484C13.168 2.14453 14.1055 3.08203 14.7852 4.27734C15.4883 5.44922 15.8516 6.77344 15.875 8.25C15.8516 9.72656 15.4883 11.0508 14.7852 12.2227C14.1055 13.418 13.168 14.3555 11.9727 15.0352C10.8008 15.7383 9.47656 16.1016 8 16.125C6.57031 16.1016 5.28125 15.7617 4.13281 15.1055C2.98438 14.4492 2.04688 13.5586 1.32031 12.4336C1.22656 12.2461 1.22656 12.0703 1.32031 11.9062C1.41406 11.7188 1.57812 11.625 1.8125 11.625C2.02344 11.625 2.19922 11.7188 2.33984 11.9062ZM1.25 2.30859V4.875H3.81641L1.25 2.30859Z" fill="black"/>
</svg>
