<svg width="23" height="19" viewBox="0 0 23 19" fill="none" xmlns="http://www.w3.org/2000/svg">
<path d="M2.25 1.375C1.92188 1.375 1.65234 1.48047 1.44141 1.69141C1.23047 1.90234 1.125 2.17188 1.125 2.5V12.625C1.125 12.9531 1.23047 13.2227 1.44141 13.4336C1.65234 13.6445 1.92188 13.75 2.25 13.75H2.46094C2.69531 13.0938 3.09375 12.5547 3.65625 12.1328C4.21875 11.7344 4.875 11.5234 5.625 11.5C6.375 11.5234 7.03125 11.7344 7.59375 12.1328C8.15625 12.5547 8.56641 13.0938 8.82422 13.75H13.5V2.5C13.5 2.17188 13.3945 1.90234 13.1836 1.69141C12.9727 1.48047 12.7031 1.375 12.375 1.375H2.25ZM2.25 14.875C1.61719 14.8516 1.08984 14.6289 0.667969 14.207C0.246094 13.7852 0.0234375 13.2578 0 12.625V2.5C0.0234375 1.86719 0.246094 1.33984 0.667969 0.917969C1.08984 0.496094 1.61719 0.273438 2.25 0.25H12.375C13.0078 0.273438 13.5352 0.496094 13.957 0.917969C14.3789 1.33984 14.6016 1.86719 14.625 2.5V3.625H16.9102C17.4258 3.625 17.8594 3.82422 18.2109 4.22266L20.9531 7.45703C21.2344 7.76172 21.375 8.125 21.375 8.54688V13.75H21.9375C22.2891 13.7734 22.4766 13.9609 22.5 14.3125C22.4766 14.6641 22.2891 14.8516 21.9375 14.875H20.25C20.2266 15.8359 19.8984 16.6328 19.2656 17.2656C18.6328 17.8984 17.8359 18.2266 16.875 18.25C15.9141 18.2266 15.1172 17.8984 14.4844 17.2656C13.8516 16.6328 13.5234 15.8359 13.5 14.875H9C8.97656 15.8359 8.64844 16.6328 8.01562 17.2656C7.38281 17.8984 6.58594 18.2266 5.625 18.25C4.66406 18.2266 3.86719 17.8984 3.23438 17.2656C2.60156 16.6328 2.27344 15.8359 2.25 14.875ZM14.625 8.125H20.0742L17.332 4.96094C17.2383 4.82031 17.0977 4.75 16.9102 4.75H14.625V8.125ZM14.625 9.25V12.3438C15.2344 11.8047 15.9844 11.5234 16.875 11.5C17.625 11.5234 18.2812 11.7344 18.8438 12.1328C19.4062 12.5547 19.8164 13.0938 20.0742 13.75H20.25V9.25H14.625ZM7.875 14.875C7.85156 14.0312 7.47656 13.3867 6.75 12.9414C6 12.5195 5.25 12.5195 4.5 12.9414C3.77344 13.3867 3.39844 14.0312 3.375 14.875C3.39844 15.7188 3.77344 16.3633 4.5 16.8086C5.25 17.2305 6 17.2305 6.75 16.8086C7.47656 16.3633 7.85156 15.7188 7.875 14.875ZM16.875 17.125C17.7188 17.1016 18.3633 16.7266 18.8086 16C19.2305 15.25 19.2305 14.5 18.8086 13.75C18.3633 13.0234 17.7188 12.6484 16.875 12.625C16.0312 12.6484 15.3867 13.0234 14.9414 13.75C14.5195 14.5 14.5195 15.25 14.9414 16C15.3867 16.7266 16.0312 17.1016 16.875 17.125Z" fill="black"/>
</svg>
