<svg width="24" height="18" viewBox="0 0 24 18" fill="none" xmlns="http://www.w3.org/2000/svg">
<path d="M3 2.25C2.53125 2.28125 2.28125 2.53125 2.25 3V4.03125L10.3594 10.6875C10.8594 11.0625 11.4062 11.25 12 11.25C12.625 11.25 13.1875 11.0625 13.6875 10.6875L21.75 4.03125V3C21.7188 2.53125 21.4688 2.28125 21 2.25H3ZM2.25 6.9375V15C2.28125 15.4688 2.53125 15.7188 3 15.75H21C21.4688 15.7188 21.7188 15.4688 21.75 15V6.9375L15.0938 12.4219C14.1562 13.1406 13.125 13.5 12 13.5C10.875 13.5 9.84375 13.1406 8.90625 12.4219L2.25 6.9375ZM0 3C0.03125 2.15625 0.328125 1.45312 0.890625 0.890625C1.45312 0.328125 2.15625 0.03125 3 0H21C21.8438 0.03125 22.5469 0.328125 23.1094 0.890625C23.6719 1.45312 23.9688 2.15625 24 3V15C23.9688 15.8438 23.6719 16.5469 23.1094 17.1094C22.5469 17.6719 21.8438 17.9688 21 18H3C2.15625 17.9688 1.45312 17.6719 0.890625 17.1094C0.328125 16.5469 0.03125 15.8438 0 15V3Z" fill="black"/>
</svg>
